<svg version="1.1" xmlns="http://www.w3.org/2000/svg" xmlns:xlink="http://www.w3.org/1999/xlink" x="0px" y="0px" viewBox="0 0 256 256" enable-background="new 0 0 256 256" xml:space="preserve">
<metadata> Svg Vector Icons : http://www.onlinewebfonts.com/icon </metadata>
<g><g><g><path fill="white" d="M89.8,91.7c-20.9,36.2-47.4,82.1-58.9,102.1L10,230l59,0.1c32.5,0,85.6,0,118,0l59-0.1l-30.4-52.6c-16.7-28.9-43.2-74.9-58.9-102.1c-15.7-27.2-28.6-49.5-28.8-49.5C127.9,25.8,110.7,55.5,89.8,91.7z M138.2,127.8c13.8,3.5,29,15.5,39.9,31.6l2.5,3.6l-1.2,1.8c-3.7,6-11.1,14.6-16.7,19.5c-10.2,8.9-20.6,13.9-30.7,14.8c-14.9,1.3-28.6-4.7-42.5-18.6c-4.6-4.5-11.1-12.6-13.2-16.3l-0.8-1.3l2.3-3.4c7.8-11.4,18-21.2,27.4-26.6c6-3.3,11.8-5.3,18.5-6.3C126.5,126.3,134.4,126.9,138.2,127.8z"/><path fill="white" d="M121.6,138.2c-9.6,2.6-16.7,10.1-18.7,19.9c-0.8,4-0.8,6,0,10.1c2.5,11.9,13.1,20.5,25.1,20.5c14.2,0,25.6-11.4,25.7-25.6c0-11.7-7.9-21.9-19.4-24.9C130.9,137.3,124.9,137.3,121.6,138.2z M132.4,152.5c3.6,1.5,6.5,5.4,7,9.4c1,8.5-8.2,15.1-16,11.6c-4.5-2-6.6-5.4-6.6-10.3c0-6,3.4-10,9.6-11.4C127.6,151.3,130.7,151.7,132.4,152.5z"/></g></g></g>
</svg>